<svg xmlns="http://www.w3.org/2000/svg" version="1.1" xmlns:xlink="http://www.w3.org/1999/xlink" xmlns:svgjs="http://svgjs.dev/svgjs" width="2000" height="1414" viewBox="0 0 2000 1414"><g transform="matrix(1,0,0,1,-1.2121212121212466,0)"><svg viewBox="0 0 396 280" data-background-color="#1f2d5a" preserveAspectRatio="xMidYMid meet" height="1414" width="2000" xmlns="http://www.w3.org/2000/svg" xmlns:xlink="http://www.w3.org/1999/xlink"><g id="tight-bounds" transform="matrix(1,0,0,1,0.2400000000000091,0)"><svg viewBox="0 0 395.52 280" height="280" width="395.52"><g><svg viewBox="0 0 395.52 280" height="280" width="395.52"><g><svg viewBox="0 0 395.52 280" height="280" width="395.52"><g id="textblocktransform"><svg viewBox="0 0 395.52 280" height="280" width="395.52" id="textblock"><g><svg viewBox="0 0 395.52 280" height="280" width="395.52"><g transform="matrix(1,0,0,1,135.85433383431376,74.00336708925556)"><svg viewBox="0 0 123.81133233137244 131.99326582148888" height="131.99326582148888" width="123.81133233137244"><g><svg xmlns="http://www.w3.org/2000/svg" xmlns:xlink="http://www.w3.org/1999/xlink" version="1.1" x="0" y="0" viewBox="28.63035011291504 21.518999099731445 446.66741943359375 476.1849365234375" style="enable-background:new 0 0 512 512;" xml:space="preserve" height="131.99326582148888" width="123.81133233137244" class="icon-o-0" data-fill-palette-color="accent" id="o-0"><g fill="#2f76db" data-fill-palette-color="accent"><g fill="#2f76db" data-fill-palette-color="accent"><path d="M319.965 155.738h-65.386c0.355 22.049 3.634 43.139 9.503 61.777h55.883V155.738z" fill="#000000" data-fill-palette-color="accent"></path><path d="M393.353 155.738h-65.388v61.777h55.885C389.719 198.877 392.997 177.787 393.353 155.738z" fill="#000000" data-fill-palette-color="accent"></path><path d="M383.5 84.841h-55.535v62.897h65.388C392.99 125.249 389.593 103.749 383.5 84.841z" fill="#000000" data-fill-palette-color="accent"></path><path d="M319.965 84.841h-55.533c-6.094 18.908-9.49 40.408-9.853 62.897h65.386V84.841z" fill="#000000" data-fill-palette-color="accent"></path><path d="M372.386 244.907c3.28-6.006 6.194-12.505 8.741-19.392h-53.162v56.471C344.575 280.183 360.221 267.184 372.386 244.907z" fill="#000000" data-fill-palette-color="accent"></path><path d="M319.965 225.515h-53.16c2.547 6.887 5.461 13.386 8.741 19.392 12.165 22.276 27.81 35.275 44.419 37.079V225.515z" fill="#000000" data-fill-palette-color="accent"></path><path d="M454.357 155.738h-53.006c-0.343 21.909-3.486 42.958-9.135 61.777h44.376C447.287 199.27 453.678 178.21 454.357 155.738z" fill="#000000" data-fill-palette-color="accent"></path><path d="M379.406 248.741c-6.896 12.63-14.93 22.577-23.713 29.562 31.242-7.837 58.047-26.969 75.812-52.788H389.61C386.704 233.803 383.306 241.602 379.406 248.741z" fill="#000000" data-fill-palette-color="accent"></path><path d="M372.386 58.589c-12.165-22.27-27.81-35.267-44.421-37.07v55.322h52.727C378.246 70.38 375.483 64.26 372.386 58.589z" fill="#000000" data-fill-palette-color="accent"></path><path d="M401.352 147.738h53.006c-0.694-22.934-7.338-44.396-18.437-62.897h-44.055C397.73 103.943 401.002 125.391 401.352 147.738z" fill="#000000" data-fill-palette-color="accent"></path><path d="M379.406 54.754c3.723 6.813 6.992 14.222 9.811 22.087h41.499c-17.763-25.237-44.238-43.917-75.019-51.638C364.479 32.186 372.511 42.129 379.406 54.754z" fill="#000000" data-fill-palette-color="accent"></path><path d="M255.714 217.515c-5.647-18.818-8.791-39.868-9.134-61.777h-53.019c0.681 22.472 7.071 43.531 17.767 61.777H255.714z" fill="#000000" data-fill-palette-color="accent"></path><path d="M319.965 21.519c-16.609 1.803-32.255 14.8-44.42 37.07-3.097 5.671-5.859 11.791-8.305 18.252h52.725V21.519z" fill="#000000" data-fill-palette-color="accent"></path><path d="M474.473 288.742c-4.453-4.674-28.211-0.211-59.711 25.323-16.732 13.327-35.871 26.599-51.198 24.103l-0.144-0.023c6.672 6.828 10.062 15.439 8.701 23.904-2.172 13.512-15.227 21.673-34.922 21.83-0.011 0-0.021 0-0.032 0-0.214 0-0.427-0.018-0.638-0.051l-88.602-14.319c-2.181-0.353-3.663-2.406-3.311-4.587 0.352-2.18 2.403-3.666 4.587-3.311l88.263 14.264c15.274-0.201 25.268-5.831 26.756-15.095 1.386-8.627-5.473-20.618-20.915-25.849-0.049-0.018-0.09-0.045-0.138-0.063l-98.888-16c-1.014-0.164-1.925-0.711-2.546-1.528-11.661-15.347-25.503-23.972-41.144-25.635-35.952-3.817-74.498 29.243-93.019 45.135-1.737 1.49-3.312 2.838-4.742 4.038l-11.774-14.812c-0.714-0.898-1.78-1.446-2.926-1.505-1.141-0.055-2.262 0.377-3.064 1.197l-55.295 47.486c-1.545 1.578-1.517 4.111 0.063 5.656 1.58 1.545 4.113 1.518 5.656-0.063l52.126-44.246 93.266 117.322-42.502 39.091c-1.491 1.631-1.378 4.16 0.252 5.651 0.768 0.702 1.734 1.049 2.699 1.049 1.083 0 2.164-0.438 2.953-1.3l44.805-41.609c1.327-1.451 1.403-3.65 0.18-5.189l-14.472-18.205 15.723-12.498c0.831-0.66 1.888-0.958 2.943-0.844 131.286 14.998 138.038 9.084 202.63-47.467 16.646-14.573 37.35-32.7 64.852-54.569C476.045 299.081 476.405 290.772 474.473 288.742z" fill="#000000" data-fill-palette-color="accent"></path><path d="M256.065 84.841H212c-11.1 18.5-17.744 39.963-18.439 62.897h53.019C246.93 125.391 250.201 103.943 256.065 84.841z" fill="#000000" data-fill-palette-color="accent"></path><path d="M268.524 54.754c6.896-12.626 14.929-22.569 23.711-29.552-30.786 7.72-57.265 26.4-75.031 51.639h41.51C261.533 68.976 264.803 61.567 268.524 54.754z" fill="#000000" data-fill-palette-color="accent"></path><path d="M268.524 248.741c-3.899-7.14-7.298-14.938-10.204-23.226h-41.905c17.767 25.82 44.577 44.953 75.824 52.789C283.455 271.319 275.422 261.372 268.524 248.741z" fill="#000000" data-fill-palette-color="accent"></path><path d="M137.532 475.639c2.983 0 5.915-1.023 8.262-2.887 5.72-4.561 6.676-12.929 2.128-18.66-2.537-3.183-6.328-5.009-10.4-5.009-2.989 0-5.924 1.027-8.264 2.893-5.722 4.563-6.671 12.927-2.124 18.637C129.661 473.806 133.45 475.638 137.532 475.639 137.531 475.639 137.531 475.639 137.532 475.639z" fill="#000000" data-fill-palette-color="accent"></path></g></g></svg></g></svg></g><path d="M69.637 185.406L68.388 182.25 95.4 173.77 96.986 177.777 88.779 185.037 78.209 194.089C83.062 193.91 87.727 193.778 92.203 193.691V193.691L103.214 193.521 104.803 197.538 79.453 210.22 78.204 207.064 88.215 202.066 99.489 196.525C95.1 196.669 90.659 196.789 86.165 196.882V196.882L74.936 197.097 73.746 194.089 82.159 186.757 92.001 178.272C90.989 178.672 87.087 179.93 80.296 182.046V182.046ZM86.027 220.462L84.223 217.587 108.142 202.579 109.946 205.454ZM125.207 224.754V224.754L122.592 227.041C122.268 225.693 121.888 224.558 121.451 223.636 121.018 222.718 120.278 221.66 119.229 220.461V220.461C117.224 218.169 114.778 216.941 111.893 216.776 109.002 216.616 106.305 217.631 103.803 219.82V219.82C101.196 222.1 99.778 224.677 99.549 227.549 99.315 230.425 100.292 233.114 102.481 235.616V235.616C104.246 237.634 106.29 238.887 108.614 239.376V239.376L105.932 241.722C103.908 241.192 101.904 239.794 99.92 237.526V237.526C97.124 234.33 95.836 230.872 96.056 227.153 96.271 223.439 98.071 220.1 101.457 217.138V217.138C104.653 214.342 108.142 213.079 111.924 213.35 115.705 213.621 118.939 215.293 121.626 218.364V218.364C123.558 220.571 124.751 222.701 125.207 224.754ZM133.964 245.197L141.475 235.328 144.176 237.384 127.074 259.853 124.373 257.798 132.113 247.628 121.215 239.334 113.475 249.503 110.774 247.448 127.876 224.978 130.577 227.033 123.066 236.902ZM145.752 255.558L144.606 256.792 153.76 260.849 153.925 259.126 155.401 244.941C154.611 245.904 151.394 249.443 145.752 255.558ZM156.055 273.135L152.724 271.659 153.473 263.879 142.553 259.039 137.255 264.802 133.916 263.321 154.358 241.496 158.653 243.4ZM169.157 263.427L166.957 272.807 178.993 275.629 178.314 278.526 162.973 274.93 169.419 247.438 184.556 250.987 183.877 253.884 172.045 251.11 169.836 260.529 180.282 262.978 179.603 265.876ZM190.93 251.088L189.411 276.225 201.413 276.95 201.229 280 185.839 279.07 187.543 250.884ZM217.97 252.45L220.349 264.287 224.624 263.428C226.705 263.009 228.226 262.138 229.185 260.815 230.145 259.499 230.457 258.004 230.121 256.332V256.332C229.747 254.472 228.845 253.117 227.415 252.267 225.991 251.41 224.169 251.204 221.951 251.65V251.65ZM219.639 277.973L214.073 250.29 221.343 248.828C224.55 248.183 227.244 248.505 229.425 249.792 231.605 251.073 232.959 253.027 233.488 255.656V255.656C233.983 258.121 233.478 260.355 231.972 262.356 230.464 264.352 228.204 265.652 225.192 266.258V266.258L220.918 267.117 222.967 277.304ZM248.105 239.865L249.194 242.635 237.922 247.069 241.588 256.387 251.489 252.492 252.579 255.261 242.677 259.156 247.17 270.577 244.012 271.819 233.674 245.542ZM273.742 244.101V244.101L264.359 229.214 267.23 227.404 276.566 242.215C278.505 245.291 279.198 248.109 278.647 250.669 278.101 253.225 276.444 255.375 273.676 257.119V257.119C270.959 258.832 268.344 259.398 265.829 258.818 263.32 258.235 261.135 256.467 259.274 253.514V253.514L249.758 238.416 252.629 236.607 262.124 251.671C263.507 253.866 265.053 255.154 266.761 255.537 268.465 255.914 270.204 255.543 271.978 254.425V254.425C275.924 251.938 276.512 248.496 273.742 244.101ZM291.477 242.558L289.079 244.961 269.094 225.013 272.11 221.991 285.535 225.377 299.255 228.946C297.259 227.114 294.345 224.285 290.513 220.46V220.46L282.059 212.022 284.457 209.62 304.443 229.568 301.42 232.597 288.058 229.26C285.369 228.591 282.875 227.958 280.575 227.36 278.27 226.756 276.628 226.317 275.647 226.041V226.041L274.218 225.627C276.373 227.582 279.32 230.425 283.059 234.156V234.156ZM290.005 205.593L308.944 217.262 311.607 212.941C313.438 209.969 313.901 207.156 312.995 204.502 312.093 201.842 310.261 199.661 307.499 197.959V197.959C304.883 196.347 302.162 195.843 299.334 196.447 296.501 197.048 294.25 198.704 292.579 201.416V201.416ZM309.677 221.747L285.636 206.935 290.032 199.8C292.215 196.258 295.104 194.028 298.701 193.111 302.303 192.197 305.85 192.816 309.342 194.967V194.967C312.816 197.108 315.07 199.946 316.102 203.482 317.137 207.026 316.49 210.689 314.162 214.468V214.468ZM296.833 188.003L303.111 170.449 305.913 171.451 303.346 178.63 327.132 187.137 325.989 190.333 302.203 181.826 299.635 189.005Z" fill="#000000" data-fill-palette-color="primary"></path><path d="M87.581 108.425L86.355 111.537 61.164 99.445 62.725 95.482 73.54 95.782 87.254 96.38C83.635 93.236 80.184 90.191 76.902 87.244V87.244L68.849 79.932 70.406 75.978 97.234 83.911 96.005 87.032 85.425 83.882 73.558 80.279C76.82 83.132 80.104 86.04 83.408 89.003V89.003L91.645 96.419 90.478 99.383 79.47 99.005 66.653 98.494C67.653 98.888 71.314 100.611 77.635 103.664V103.664ZM102.133 76.947L100.359 79.783 76.732 65.002 78.506 62.167ZM98.706 39.889V39.889L101.292 42.148C100.014 42.643 98.956 43.164 98.118 43.709 97.275 44.251 96.336 45.114 95.301 46.298V46.298C93.324 48.562 92.448 51.118 92.673 53.967 92.893 56.811 94.24 59.314 96.714 61.475V61.475C99.287 63.723 101.994 64.77 104.833 64.616 107.678 64.466 110.178 63.157 112.335 60.688V60.688C114.077 58.694 115.033 56.53 115.205 54.195V54.195L117.851 56.507C117.599 58.551 116.492 60.695 114.532 62.938V62.938C111.778 66.092 108.569 67.809 104.906 68.089 101.237 68.365 97.734 67.044 94.396 64.128V64.128C91.237 61.369 89.542 58.121 89.308 54.384 89.08 50.652 90.29 47.269 92.94 44.235V44.235C94.844 42.056 96.766 40.608 98.706 39.889ZM125.845 32.702L118.423 22.965 121.083 20.938 137.978 43.102 135.318 45.129 127.673 35.1 116.916 43.3 124.561 53.33 121.901 55.357 105.006 33.193 107.666 31.166 115.087 40.902ZM142.956 28.184L143.103 29.839 152.135 25.824 150.988 24.569 141.571 14.094C141.75 15.314 142.212 20.011 142.956 28.184ZM162.652 32.28L159.36 33.744 154.159 28.05 143.391 32.838 144.099 40.529 140.806 41.993 138.369 12.577 142.598 10.696ZM166.476 18.777L168.655 28.029 180.533 25.232 181.206 28.09 166.073 31.654 159.685 4.527 174.614 1.011 175.287 3.869 163.613 6.618 165.803 15.919 176.112 13.491 176.785 16.349ZM187.074 0L188.587 24.807 200.439 24.085 200.623 27.095 185.432 28.021 183.736 0.203ZM222.263 4.924L219.901 16.591 224.115 17.445C226.17 17.861 227.888 17.653 229.268 16.822 230.642 15.99 231.496 14.748 231.83 13.096V13.096C232.201 11.262 231.905 9.685 230.939 8.366 229.968 7.046 228.386 6.164 226.194 5.72V5.72ZM214.022 28.776L219.552 1.46 226.722 2.912C229.883 3.552 232.212 4.873 233.709 6.876 235.198 8.883 235.681 11.181 235.157 13.77V13.77C234.664 16.202 233.351 18.042 231.216 19.288 229.076 20.527 226.521 20.846 223.548 20.244V20.244L219.334 19.391 217.3 29.439ZM259.306 13.634L258.227 16.365 247.11 11.97 243.476 21.161 253.251 25.026 252.171 27.756 242.397 23.892 237.943 35.157 234.833 33.927 245.08 8.01ZM272.14 41.952V41.952L281.429 27.276 284.263 29.07 275.023 43.671C273.103 46.704 270.887 48.517 268.375 49.111 265.864 49.704 263.245 49.139 260.52 47.414V47.414C257.84 45.718 256.226 43.628 255.677 41.145 255.129 38.661 255.775 35.965 257.617 33.055V33.055L267.039 18.169 269.865 19.957 260.464 34.81C259.095 36.974 258.604 38.897 258.991 40.58 259.379 42.262 260.448 43.657 262.197 44.765V44.765C266.083 47.224 269.397 46.286 272.14 41.952ZM275.01 58.521L272.651 56.151 292.408 36.494 295.385 39.486 291.987 52.723 288.412 66.248C290.228 64.282 293.032 61.413 296.823 57.641V57.641L305.178 49.329 307.543 51.707 287.787 71.363 284.81 68.371 288.152 55.191C288.82 52.541 289.455 50.084 290.057 47.82 290.654 45.55 291.089 43.928 291.364 42.953V42.953L291.783 41.553C289.844 43.669 287.029 46.564 283.336 50.238V50.238ZM313.128 65.391L294.421 76.886 297.036 81.143C298.839 84.077 301.113 85.737 303.858 86.122 306.602 86.507 309.337 85.863 312.062 84.188V84.188C314.646 82.601 316.301 80.427 317.027 77.668 317.759 74.905 317.304 72.186 315.661 69.512V69.512ZM290.142 75.531L313.887 60.941 318.217 67.988C320.367 71.487 321.045 75.024 320.25 78.596 319.452 82.178 317.329 85.029 313.881 87.148V87.148C310.449 89.257 306.945 89.98 303.369 89.32 299.79 88.653 296.852 86.451 294.556 82.714V82.714ZM328.181 86.462L334.356 103.788 331.59 104.774 329.064 97.686 305.578 106.056 304.455 102.906 327.941 94.536 325.415 87.448Z" fill="#000000" data-fill-palette-color="primary"></path><path d="M61.559 142.995C61.559 137.037 66.388 132.208 72.346 132.208 78.303 132.208 83.133 137.037 83.133 142.995 83.133 148.952 78.303 153.781 72.346 153.781 66.388 153.781 61.559 148.952 61.559 142.995ZM312.387 142.995C312.387 137.037 317.217 132.208 323.174 132.208 329.132 132.208 333.961 137.037 333.961 142.995 333.961 148.952 329.132 153.781 323.174 153.781 317.217 153.781 312.387 148.952 312.387 142.995Z" fill="#000000" data-fill-palette-color="primary"></path></svg></g></svg></g></svg></g><g></g></svg></g><defs></defs></svg><rect width="395.52" height="280" fill="none" stroke="none" visibility="hidden"></rect></g></svg></g></svg>